<svg width="120" height="120" viewBox="0 0 120 120" fill="none" xmlns="http://www.w3.org/2000/svg">
<g clip-path="url(#clip0_4648_2807)">
<path opacity="0.3" d="M7.86035 67C8.04005 67.1618 8.94799 69.1668 12.7153 69.8211C16.4827 70.4754 17.8604 69.1246 17.8604 69.1246L7.8635 67H7.86035Z" fill="#1C1C1B"/>
<path opacity="0.3" d="M111.86 67C111.681 67.1618 110.773 69.1668 107.005 69.8211C103.238 70.4754 101.86 69.1246 101.86 69.1246L111.857 67H111.86Z" fill="#1C1C1B"/>
<path d="M23.2554 50.7724C23.2554 50.7724 16.1929 55.5544 13.4382 64.3435L1.50116 61.7401C1.50116 61.7401 4.32754 45.7762 11.9533 40.9942L23.252 50.769L23.2554 50.7724Z" fill="#F5B700"/>
<path d="M22.3338 48.9337C22.3338 48.9337 14.2165 54.2493 11.8611 64.4421L12.8442 64.5509C12.8442 64.5509 14.4383 57.0159 24.4467 49.2668L22.3338 48.9337Z" fill="#D58E06"/>
<path d="M4.5949 63.2488L4.25697 63.2012C4.27745 63.0483 6.52012 47.8662 16.4841 42.1835L16.6548 42.4792C6.83758 48.0803 4.61538 63.0992 4.5949 63.2488Z" fill="#E0A000"/>
<path d="M9.10727 39.1588L10.6058 41.9899L22.6725 52.4886L23.2528 52.023C23.2528 52.023 11.9951 41.3782 9.10727 39.1588Z" fill="#D58E06"/>
<path d="M27.9943 48.2436C27.9943 48.2436 26.2432 34.6895 22.5702 29C22.5702 29 15.7705 30.6246 9.10395 39.1554L23.2495 52.0196L27.9943 48.2402V48.2436Z" fill="#FBDA00"/>
<path d="M18.683 55.4864C14.085 54.3104 9.13885 51.809 4.48283 47.982C4.48283 47.9854 3.23349 50.6704 2.34939 53.7938C6.97469 56.8697 11.9994 58.5792 16.7578 58.9191C17.4064 57.8009 18.0481 56.6555 18.683 55.4864Z" fill="#FBDA00"/>
<mask id="mask0_4648_2807" style="mask-type:luminance" maskUnits="userSpaceOnUse" x="2" y="47" width="17" height="12">
<path d="M18.6838 55.4864C14.0858 54.3105 9.13961 51.809 4.48359 47.9821C4.48359 47.9855 3.23425 50.6705 2.35015 53.7939C6.97545 56.8697 12.0001 58.5793 16.7586 58.9192C17.4071 57.801 18.0489 56.6556 18.6838 55.4864Z" fill="white"/>
</mask>
<g mask="url(#mask0_4648_2807)">
<path d="M3.32946 48.206C3.34653 48.206 7.2823 51.479 11.1873 53.3653C15.0924 55.4725 18.9667 56.1964 18.9019 56.2032C19.1203 55.8532 19.3388 55.4963 19.5538 55.1394C14.6247 53.678 9.23824 50.6633 4.21015 46.0954C3.91659 46.8058 3.62303 47.5093 3.32946 48.206Z" fill="#FFEFA0"/>
</g>
<path d="M0.480857 59.2148L2.04765 59.2521L1.76775 60.564L0.480857 59.2148Z" fill="#E0A000"/>
<path d="M15.2894 63.0518L14.163 62.3517L13.3745 64.3331L15.6888 63.3067" fill="#E0A000"/>
<path d="M13.7359 66.6138C8.92972 67.3003 4.75842 65.8933 0 63.9764C0.153608 62.3824 0.310629 60.785 0.464237 59.1876C5.44112 61.9745 10.7116 63.351 15.6816 63.3136C15.3266 64.1565 14.0944 65.7879 13.7359 66.6172V66.6138Z" fill="#FBDA00"/>
<mask id="mask1_4648_2807" style="mask-type:luminance" maskUnits="userSpaceOnUse" x="0" y="59" width="16" height="8">
<path d="M13.7359 66.6138C8.92972 67.3003 4.75842 65.8933 0 63.9764C0.153608 62.3824 0.310629 60.785 0.464237 59.1876C5.44112 61.9745 10.7116 63.351 15.6816 63.3136C15.3266 64.1565 14.0944 65.7879 13.7359 66.6172V66.6138Z" fill="white"/>
</mask>
<g mask="url(#mask1_4648_2807)">
<path d="M-0.598273 60.0781C-0.557311 60.1155 3.56279 62.4028 7.67264 63.2627C11.7791 64.3503 15.8719 64.007 15.8138 64.0138C16.0562 63.6264 16.302 63.2389 16.5443 62.8447C11.1954 62.6645 5.44704 60.8224 0.0673592 57.3149C-0.154518 58.2394 -0.376396 59.1604 -0.59486 60.0781H-0.598273Z" fill="#FFEFA0"/>
</g>
<path d="M9.07539 45.3784C8.87741 45.5211 8.69991 45.6978 8.5463 45.912C8.29029 46.262 8.14351 46.6529 8.10254 47.0539C8.06158 47.3768 8.09913 47.7099 8.19471 48.0294C8.33466 48.4746 8.61798 48.8824 9.0276 49.1781C9.09587 49.2257 9.15732 49.2699 9.22559 49.3039C9.82295 49.6506 10.5261 49.7015 11.1576 49.4772C11.5638 49.3311 11.9325 49.083 12.2192 48.7261L12.2909 48.6275C13.059 47.5773 12.8439 46.1193 11.8028 45.3648C10.9699 44.7632 9.87074 44.7972 9.06857 45.3818V45.375L9.07539 45.3784Z" fill="#E0A000"/>
<path d="M11.613 45.6332C12.5073 46.2789 12.6916 47.5365 12.0294 48.4405L11.9646 48.5289C11.7188 48.8382 11.3945 49.0523 11.0497 49.1781C10.507 49.3684 9.89939 49.331 9.39078 49.0285C9.33617 48.9877 9.27131 48.9605 9.21669 48.9198C8.86852 48.6683 8.62616 48.3182 8.49986 47.9307C8.41793 47.6588 8.38721 47.3699 8.42135 47.0912C8.45889 46.7446 8.5852 46.4081 8.80366 46.1056C8.93679 45.9255 9.09381 45.7725 9.25765 45.6502C9.94718 45.154 10.8996 45.12 11.6096 45.6332H11.613Z" fill="#10967F"/>
<path d="M11.6129 45.6331C12.5072 46.2789 12.6915 47.5364 12.0293 48.4405L11.9644 48.5288C11.862 48.5016 11.7801 48.3079 11.7255 48.2399C11.1828 47.6384 10.2099 47.8593 9.43162 47.7437C8.85133 47.6553 8.32565 47.3733 8.60556 46.5712C8.72162 46.2347 8.97422 45.9016 9.26778 45.6535C9.95731 45.1573 10.9097 45.1233 11.6197 45.6365H11.6129V45.6331Z" fill="#80C6BB"/>
<path d="M10.6576 45.6842C10.4289 45.6638 10.1661 45.6536 9.93396 45.8303C9.893 45.8575 9.893 45.9153 9.93396 45.9255C10.149 45.9663 10.3948 45.8847 10.6201 45.8949C10.842 45.9119 11.0536 45.9798 11.2482 46.0444C11.2925 46.058 11.3472 45.9731 11.3198 45.9459C11.1389 45.7861 10.9239 45.708 10.6645 45.691H10.6576V45.6842Z" fill="white"/>
<path d="M9.66703 45.9526C9.56804 45.9492 9.4315 45.9526 9.3803 46.0987C9.37006 46.1395 9.37347 46.1701 9.39736 46.1871C9.4827 46.2482 9.58852 46.1531 9.67727 46.0749C9.71482 46.0341 9.71482 45.9594 9.67045 45.956H9.66362L9.66703 45.9526Z" fill="white"/>
<path d="M4.46876 57.4948C4.33222 57.6511 4.22299 57.8347 4.13424 58.042C3.99087 58.3819 3.94649 58.7353 3.99428 59.0786C4.025 59.3573 4.12058 59.6258 4.26395 59.8705C4.46876 60.2138 4.78622 60.4959 5.1856 60.659C5.25045 60.6862 5.3119 60.71 5.37675 60.7236C5.93998 60.8935 6.53393 60.7984 7.01182 60.4891C7.31903 60.2885 7.57505 60.0099 7.74572 59.6564L7.78668 59.5578C8.21679 58.5348 7.74572 57.369 6.73533 56.9476C5.92633 56.6111 5.01833 56.8558 4.46876 57.5016V57.4948Z" fill="#E0A000"/>
<path d="M6.62226 57.2023C7.4927 57.5626 7.8955 58.5686 7.52684 59.4489L7.4927 59.5339C7.34933 59.8397 7.12404 60.0811 6.86462 60.251C6.45158 60.5161 5.93956 60.6045 5.45825 60.4549C5.40364 60.4311 5.34561 60.4209 5.29099 60.4005C4.95306 60.2612 4.68339 60.0199 4.49906 59.7208C4.37617 59.5135 4.29425 59.279 4.26694 59.0376C4.22939 58.742 4.26694 58.4361 4.38983 58.1438C4.46493 57.967 4.56392 57.8107 4.67656 57.6782C5.15104 57.131 5.93273 56.9134 6.62567 57.1989L6.62226 57.2023Z" fill="#10967F"/>
<path d="M6.62175 57.2022C7.49219 57.5624 7.89498 58.5685 7.52632 59.4487L7.49219 59.5337C7.40344 59.5337 7.29421 59.3875 7.23618 59.3434C6.66612 58.9491 5.9015 59.3264 5.23245 59.3841C4.73066 59.4249 4.24253 59.2958 4.31422 58.5753C4.34153 58.2728 4.48831 57.9465 4.67946 57.6848C5.15394 57.1376 5.93563 56.9201 6.62857 57.2056H6.62175V57.2022Z" fill="#80C6BB"/>
<path d="M5.84021 57.4336C5.64564 57.4608 5.42717 57.505 5.27015 57.6953C5.24285 57.7259 5.25309 57.7735 5.28722 57.7735C5.47155 57.7633 5.65929 57.6511 5.85045 57.6137C6.03819 57.5831 6.22593 57.6001 6.40344 57.6137C6.4444 57.6137 6.47171 57.5355 6.4444 57.5151C6.26007 57.4166 6.06891 57.3962 5.85045 57.4336H5.84362H5.84021Z" fill="white"/>
<path d="M5.07254 57.8516C4.99061 57.8685 4.87797 57.8991 4.86431 58.0283C4.86431 58.0623 4.87455 58.0895 4.89845 58.0997C4.98037 58.1336 5.05206 58.0351 5.10667 57.9501C5.13057 57.9093 5.1135 57.8448 5.07936 57.8516H5.07254Z" fill="white"/>
<path d="M22.5694 29C22.5694 29 26.6178 33.6189 27.9935 48.2436C27.9935 48.2436 27.7511 48.4475 27.4302 48.7092C24.9111 34.3632 20.9753 29.5846 20.9753 29.5846C20.9753 29.5846 21.7809 29.1054 22.5694 29Z" fill="#FFEFA0"/>
<path d="M96.743 50.7724C96.743 50.7724 103.806 55.5544 106.56 64.3435L118.497 61.7401C118.497 61.7401 115.671 45.7762 108.045 40.9942L96.7465 50.769L96.743 50.7724Z" fill="#F5B700"/>
<path d="M97.6643 48.9337C97.6643 48.9337 105.782 54.2493 108.137 64.4421L107.154 64.5509C107.154 64.5509 105.56 57.0159 95.5514 49.2668L97.6643 48.9337Z" fill="#D58E06"/>
<path d="M115.405 63.2488L115.742 63.2012C115.722 63.0483 113.479 47.8662 103.515 42.1835L103.345 42.4792C113.162 48.0803 115.384 63.0992 115.405 63.2488Z" fill="#E0A000"/>
<path d="M110.891 39.1588L109.392 41.9899L97.3255 52.4886L96.7453 52.023C96.7453 52.023 108.003 41.3782 110.891 39.1588Z" fill="#D58E06"/>
<path d="M92.0051 48.2436C92.0051 48.2436 93.7562 34.6895 97.4291 29C97.4291 29 104.229 30.6246 110.895 39.1554L96.7498 52.0196L92.0051 48.2402V48.2436Z" fill="#FBDA00"/>
<path d="M101.317 55.4864C105.915 54.3104 110.861 51.809 115.517 47.982C115.517 47.9854 116.766 50.6704 117.651 53.7938C113.025 56.8697 108.001 58.5792 103.242 58.9191C102.594 57.8009 101.952 56.6555 101.317 55.4864Z" fill="#FBDA00"/>
<mask id="mask2_4648_2807" style="mask-type:luminance" maskUnits="userSpaceOnUse" x="101" y="47" width="17" height="12">
<path d="M101.316 55.4864C105.914 54.3105 110.861 51.809 115.517 47.9821C115.517 47.9855 116.766 50.6705 117.65 53.7939C113.025 56.8697 108 58.5793 103.242 58.9192C102.593 57.801 101.951 56.6556 101.316 55.4864Z" fill="white"/>
</mask>
<g mask="url(#mask2_4648_2807)">
<path d="M116.673 48.2061C116.656 48.2061 112.721 51.479 108.816 53.3653C104.911 55.4726 101.036 56.1965 101.101 56.2033C100.883 55.8532 100.664 55.4963 100.449 55.1395C105.378 53.678 110.765 50.6634 115.793 46.0955C116.086 46.8058 116.38 47.5093 116.673 48.2061Z" fill="#FFEFA0"/>
</g>
<path d="M119.518 59.2148L117.952 59.2521L118.232 60.564L119.518 59.2148Z" fill="#E0A000"/>
<path d="M104.71 63.0518L105.837 62.3517L106.625 64.3331L104.311 63.3067" fill="#E0A000"/>
<path d="M106.264 66.6139C111.07 67.3004 115.242 65.8934 120 63.9765C119.847 62.3825 119.689 60.7851 119.536 59.1877C114.559 61.9746 109.289 63.3511 104.318 63.3137C104.674 64.1566 105.906 65.788 106.264 66.6173V66.6139Z" fill="#FBDA00"/>
<mask id="mask3_4648_2807" style="mask-type:luminance" maskUnits="userSpaceOnUse" x="104" y="59" width="17" height="8">
<path d="M106.264 66.6139C111.07 67.3004 115.242 65.8934 120 63.9765C119.847 62.3825 119.689 60.7851 119.536 59.1877C114.559 61.9746 109.289 63.3511 104.318 63.3137C104.674 64.1566 105.906 65.788 106.264 66.6173V66.6139Z" fill="white"/>
</mask>
<g mask="url(#mask3_4648_2807)">
<path d="M120.597 60.0781C120.556 60.1155 116.436 62.4028 112.326 63.2627C108.219 64.3503 104.126 64.007 104.184 64.0138C103.942 63.6263 103.696 63.2389 103.454 62.8446C108.803 62.6645 114.551 60.8224 119.931 57.3149C120.153 58.2394 120.375 59.1604 120.593 60.0781H120.597Z" fill="#FFEFA0"/>
</g>
<path d="M110.929 45.3853C110.127 44.8007 109.025 44.7667 108.195 45.3683C107.154 46.1228 106.939 47.5809 107.707 48.6311L107.779 48.7297C108.065 49.0865 108.438 49.3346 108.84 49.4808C109.472 49.7017 110.172 49.6541 110.772 49.3074C110.844 49.2768 110.905 49.2327 110.97 49.1817C111.38 48.886 111.663 48.4781 111.803 48.0329C111.899 47.7168 111.936 47.3838 111.895 47.0575C111.854 46.6564 111.708 46.2656 111.452 45.9155C111.295 45.7014 111.121 45.5247 110.923 45.3819V45.3887L110.929 45.3853Z" fill="#E0A000"/>
<path d="M110.738 45.6504C110.902 45.7728 111.059 45.9257 111.192 46.1058C111.41 46.4049 111.536 46.7448 111.574 47.0915C111.612 47.3702 111.581 47.6625 111.496 47.931C111.369 48.3184 111.127 48.6685 110.779 48.92C110.724 48.9608 110.659 48.988 110.605 49.0287C110.096 49.3312 109.488 49.3686 108.946 49.1783C108.601 49.0525 108.277 48.8384 108.031 48.5291L107.966 48.4408C107.304 47.5333 107.488 46.2792 108.382 45.6334C109.092 45.1202 110.045 45.1542 110.734 45.6504H110.738Z" fill="#10967F"/>
<path d="M108.379 45.637C109.089 45.1238 110.041 45.1578 110.731 45.654C111.024 45.9021 111.277 46.2352 111.393 46.5717C111.673 47.3738 111.147 47.6593 110.567 47.7442C109.789 47.8598 108.812 47.6389 108.273 48.2404C108.218 48.3084 108.136 48.5021 108.034 48.5293L107.969 48.441C107.307 47.5335 107.491 46.2794 108.386 45.6336H108.379V45.637Z" fill="#80C6BB"/>
<path d="M109.335 45.6915C109.075 45.7085 108.86 45.7866 108.679 45.9464C108.652 45.9736 108.707 46.0619 108.751 46.0449C108.946 45.9804 109.157 45.9124 109.379 45.8954C109.604 45.8852 109.85 45.9634 110.065 45.926C110.106 45.9158 110.103 45.8614 110.065 45.8308C109.833 45.6541 109.57 45.6643 109.342 45.6847H109.335V45.6915Z" fill="white"/>
<path d="M110.324 45.9561C110.28 45.9595 110.28 46.0377 110.318 46.0751C110.403 46.1566 110.512 46.2518 110.598 46.1872C110.621 46.1702 110.628 46.1362 110.615 46.0989C110.563 45.9527 110.427 45.9459 110.328 45.9527H110.321L110.324 45.9561Z" fill="white"/>
<path d="M115.534 57.4982C114.984 56.8559 114.076 56.6078 113.267 56.9442C112.253 57.3657 111.786 58.5314 112.216 59.5545L112.257 59.653C112.424 60.0065 112.684 60.2852 112.991 60.4857C113.469 60.795 114.063 60.8902 114.626 60.7202C114.691 60.7066 114.749 60.6828 114.817 60.6557C115.216 60.4891 115.53 60.2104 115.739 59.8671C115.882 59.6224 115.978 59.3539 116.008 59.0752C116.053 58.7354 116.008 58.3819 115.868 58.0386C115.783 57.8313 115.67 57.6478 115.534 57.4914V57.4982Z" fill="#E0A000"/>
<path d="M115.321 57.6817C115.434 57.8143 115.533 57.9706 115.608 58.1474C115.731 58.4397 115.769 58.7455 115.731 59.0412C115.707 59.2791 115.622 59.5136 115.499 59.7244C115.315 60.0235 115.045 60.2614 114.707 60.4041C114.652 60.4279 114.594 60.4381 114.54 60.4585C114.058 60.608 113.546 60.5197 113.133 60.2546C112.874 60.0846 112.645 59.8433 112.505 59.5374L112.471 59.4525C112.103 58.5688 112.505 57.5662 113.376 57.2059C114.065 56.9204 114.85 57.1379 115.325 57.6851L115.321 57.6817Z" fill="#10967F"/>
<path d="M113.369 57.2059C114.058 56.9204 114.844 57.1379 115.318 57.6851C115.513 57.9468 115.656 58.2731 115.683 58.5756C115.755 59.2961 115.263 59.4287 114.765 59.3845C114.096 59.3267 113.331 58.9495 112.761 59.3437C112.703 59.3879 112.597 59.534 112.505 59.534L112.471 59.4491C112.103 58.5654 112.505 57.5628 113.376 57.2025H113.369V57.2059Z" fill="#80C6BB"/>
<path d="M114.151 57.4371C113.932 57.3997 113.738 57.4235 113.557 57.5186C113.53 57.5356 113.557 57.6172 113.598 57.6172C113.772 57.6002 113.963 57.5866 114.151 57.6172C114.342 57.6512 114.53 57.7668 114.714 57.777C114.748 57.777 114.758 57.7294 114.731 57.6988C114.574 57.5084 114.352 57.4643 114.161 57.4371H114.154H114.151Z" fill="white"/>
<path d="M114.919 57.8549C114.882 57.8481 114.868 57.9127 114.892 57.9534C114.947 58.0384 115.018 58.137 115.1 58.103C115.124 58.0928 115.134 58.069 115.134 58.0316C115.121 57.9025 115.012 57.8685 114.926 57.8549H114.919Z" fill="white"/>
<path d="M97.4291 29C97.4291 29 93.3807 33.6189 92.0051 48.2436C92.0051 48.2436 92.2474 48.4475 92.5683 48.7092C95.0874 34.3632 99.0232 29.5846 99.0232 29.5846C99.0232 29.5846 98.2176 29.1054 97.4291 29Z" fill="#FFEFA0"/>
<path d="M59.8557 50.6801C59.8557 50.6801 60.4599 67.8913 60.4599 74.6038C65.5051 74.6683 71.0964 73.3123 71.0964 73.3123L71.4855 76.2623L89.5464 77.0067L90.4407 66.7391L90.707 61.2638L90.6421 59.3945L87.6348 57.0595L59.8557 50.6801Z" fill="#F5B700"/>
<path d="M59.5041 44.5522C79.6267 43.9608 91.8846 60.7267 91.8846 60.7267L91.0961 66.389C91.0961 66.389 71.2739 54.0686 59.1901 55.3737" fill="#FBDA00"/>
<path d="M78.0742 52.0909C78.0161 52.2269 77.9274 52.373 77.784 52.5158C77.9206 52.3798 78.0571 52.2949 78.2005 52.2337C78.6169 52.7571 78.6784 53.4233 78.6784 53.4233C78.6784 53.4233 78.7364 52.7741 79.1358 52.2507C79.4088 52.3662 79.5829 52.5124 79.5829 52.5124C79.5829 52.5124 79.4259 52.3289 79.3201 52.057C79.5829 51.8054 79.9618 51.6219 80.4978 51.6219C79.9448 51.6219 79.5659 51.418 79.2928 51.1563C79.3508 51.0203 79.4396 50.8742 79.5829 50.7315C79.4464 50.8674 79.3099 50.9524 79.1665 51.0135C78.75 50.4901 78.6886 49.824 78.6886 49.824C78.6886 49.824 78.6306 50.4732 78.2312 50.9966C77.9581 50.881 77.784 50.7349 77.784 50.7349C77.784 50.7349 77.941 50.9184 78.0469 51.1903C77.784 51.4418 77.4051 51.6253 76.8692 51.6253C77.4222 51.6253 77.8011 51.8292 78.0742 52.0909Z" fill="white"/>
<path d="M90.4379 66.7395L91.0967 66.3928C91.0353 66.3554 85.0514 61.9812 79.1495 59.5512C73.2509 57.1143 62.809 54.4633 62.7032 54.4361L62.4335 55.4965C62.5394 55.5237 72.9028 58.1577 78.7296 60.564C84.5496 62.9567 90.3799 66.7021 90.4413 66.7395H90.4379Z" fill="#D58E06"/>
<path d="M80.852 60.2035L83.972 52.8385L85.0199 53.7459L82.115 60.8799L80.852 60.2035Z" fill="#FFEFA0"/>
<path d="M81.9895 77.4612L81.9988 77.452H81.9895V77.4612Z" fill="white"/>
<path d="M68.2774 73.8768C68.5402 73.7646 74.9644 70.8077 76.5995 67.5178C78.1492 64.4011 79.402 60.4518 79.4566 60.2853L78.1185 59.9148C78.1048 59.9556 76.8418 63.9389 75.3365 66.9672C73.9165 69.8221 65.3315 74.2778 65.2701 74.3016L68.2808 73.8802L68.2774 73.8768Z" fill="#D58E06"/>
<path d="M91.2659 89.2219C91.8974 89.2015 92.2763 88.4673 91.9383 87.8963C91.0816 86.4655 89.3611 84.3345 86.6781 84.0048C86.1832 83.947 85.7053 83.9368 85.241 83.9844C82.5 84.2563 80.3324 86.2208 79.5234 88.0697C79.2811 88.6407 79.6497 89.2898 80.2334 89.3102H81.691C85.9579 89.3102 89.4567 89.2626 91.2659 89.232V89.2219Z" fill="#D7605D"/>
<path opacity="0.2" d="M90.0314 89.2218C90.6629 89.2014 91.0418 88.4673 90.7039 87.8963C89.8402 86.4655 88.1267 84.3345 85.4436 84.0048C85.3754 84.0048 85.3071 83.9844 85.2388 83.9844C82.4978 84.2563 80.3302 86.2208 79.5212 88.0697C79.2789 88.6407 79.6475 89.2898 80.2312 89.3102H81.6888C85.3924 89.2898 88.3861 89.2524 90.0212 89.232L90.0314 89.2218Z" fill="#010202"/>
<path d="M89.2039 89.2116C87.1899 89.249 83.1176 89.3068 78.1988 89.3068C77.5946 89.3068 77.2089 88.6475 77.4615 88.0663C78.3933 85.9081 81.2027 83.5834 84.6162 84.0014C87.2992 84.3311 89.0196 86.4689 89.8764 87.8929C90.2177 88.4639 89.8388 89.2082 89.2039 89.2184V89.2082V89.2116Z" fill="#D7605D"/>
<path d="M92.7348 89.3955C92.9089 89.6606 92.8202 89.9732 92.5846 90.1466C92.4686 90.2315 92.3047 90.2383 92.1306 90.2315L76.1486 89.7931C75.7799 89.7829 74.6467 89.7115 74.6671 89.3819L74.6876 89.1371C74.7832 87.5771 76.5855 86.2108 78.1114 85.4257L81.5419 83.6754C84.6243 82.0984 90.4136 83.0296 91.8473 86.2312L92.7314 89.4056V89.3955H92.7348Z" fill="#FBDA00"/>
<path d="M75.0803 89.9355C75.0803 89.9355 87.5532 91.4751 92.141 90.2788C92.141 90.2788 92.4311 90.2584 92.694 90.1054C92.9568 89.9525 92.9978 89.8369 92.9978 89.8369C92.9978 89.8369 93.3016 85.3166 89.0961 84.0625L91.2671 89.2218L86.2356 89.1946L77.4629 88.0696L75.2032 89.5582L75.0803 89.9355Z" fill="#FBDA00"/>
<path d="M88.3104 85.6974L88.1466 83.495L89.4813 82.6079L92.8709 73.0949L90.5838 71.7592L71.4921 76.2591L74.3458 89.2185" fill="#FBDA00"/>
<path d="M92.844 73.0915L89.4885 82.6079L88.4371 83.077L86.5324 82.8051L90.5842 71.7592L92.844 73.0915Z" fill="#F5B700"/>
<path d="M75.9884 87.5293L73.4078 75.4163L74.4899 74.9914L76.7155 86.7884L75.9884 87.5293Z" fill="#F5B700"/>
<path d="M92.6831 72.6124L91.2153 70.0361L72.3421 75.0663L71.4921 76.2592L90.5838 71.7593L92.8709 73.095L92.6831 72.6124Z" fill="#FFEFA0"/>
<path d="M82.0035 77.4613L82.0128 77.4521H82.0035V77.4613Z" fill="white"/>
<path d="M89.9452 75.9228C89.3922 75.0425 88.3135 74.5837 87.2417 74.8488C85.9002 75.1784 85.0844 76.5141 85.4155 77.8363L85.4462 77.962C85.5862 78.4208 85.849 78.8049 86.1903 79.104C86.7229 79.5628 87.4397 79.7871 88.177 79.6818C88.2589 79.6784 88.3374 79.658 88.4262 79.6376C88.9553 79.5084 89.4024 79.2229 89.7267 78.8423C89.952 78.5704 90.1261 78.2611 90.2183 77.928C90.3446 77.5236 90.3582 77.0851 90.249 76.6433C90.1841 76.3748 90.0817 76.1335 89.9418 75.9194V75.9262L89.9452 75.9228Z" fill="#E0A000"/>
<path d="M89.644 76.0961C89.7567 76.2763 89.8488 76.487 89.9069 76.7147C90.0024 77.092 89.9854 77.4692 89.8796 77.8227C89.801 78.1082 89.6509 78.3801 89.4563 78.6112C89.1696 78.9409 88.7872 79.1856 88.3367 79.2977C88.265 79.3147 88.1899 79.3181 88.1182 79.3351C87.4901 79.4337 86.8688 79.2332 86.4114 78.8389C86.1213 78.584 85.8892 78.2509 85.7731 77.8533L85.7458 77.7445C85.4625 76.606 86.1657 75.4572 87.316 75.1717C88.2308 74.9474 89.1627 75.3484 89.6406 76.0995L89.644 76.0961Z" fill="#10967F"/>
<path d="M87.3114 75.1718C88.2263 74.9475 89.1582 75.3485 89.636 76.0997C89.8238 76.4531 89.9398 76.8746 89.9125 77.2484C89.8579 78.1389 89.223 78.2103 88.6086 78.0709C87.7893 77.8806 86.9155 77.2892 86.1304 77.6665C86.0484 77.7107 85.888 77.867 85.7754 77.8534L85.7481 77.7446C85.4647 76.6061 86.1679 75.4573 87.3183 75.1718H87.3114Z" fill="#80C6BB"/>
<path d="M88.2375 75.5928C87.9746 75.5078 87.7289 75.501 87.4831 75.586C87.4455 75.603 87.4626 75.7084 87.5138 75.7118C87.7357 75.7254 87.9746 75.7389 88.1999 75.8103C88.4286 75.8885 88.6403 76.0618 88.869 76.1026C88.9133 76.1094 88.9338 76.055 88.9031 76.0108C88.7461 75.7491 88.4798 75.6574 88.2443 75.5894H88.2375V75.5928Z" fill="white"/>
<path d="M89.1116 76.2354C89.0672 76.2218 89.033 76.2966 89.0569 76.3476C89.1116 76.4597 89.1764 76.5923 89.2856 76.5651C89.3164 76.5583 89.3334 76.5277 89.3403 76.4835C89.3505 76.3238 89.2174 76.2626 89.1184 76.2286H89.1116V76.2354Z" fill="white"/>
<path d="M91.2158 70.036L93.199 71.851L92.8713 73.0949L90.5843 71.7592L71.4925 76.2591L71.059 74.4544L91.2158 70.036Z" fill="#FFEFA0"/>
<path d="M89.4958 82.601C89.4582 82.601 86.4987 82.8083 86.4987 82.8083L82.1021 82.0572L74.3432 89.1979L75.0805 89.9321L82.6961 84.7592L88.3522 83.4541L89.4958 82.601Z" fill="#D58E06"/>
<path d="M89.4948 82.6013C89.4983 82.5742 86.4978 82.8087 86.4978 82.8087L82.1012 82.0576L74.3423 89.1983L74.1034 88.0903L81.5072 80.7456L86.8426 81.8536L89.8498 81.5613L89.4914 82.598L89.4948 82.6013Z" fill="#FFEFA0"/>
<path d="M86.8465 81.8534L86.5017 82.8084C86.5017 82.8084 89.4988 82.5943 89.4988 82.6011C89.4988 82.6079 89.8572 81.5645 89.8572 81.5645L86.8499 81.8568L86.8465 81.8534Z" fill="#FBDA00"/>
<path d="M93.9391 89.6739L93.9733 90.7276C93.9733 90.8057 93.9255 90.8737 93.8504 90.8907C93.2701 91.0232 90.6758 91.5399 85.1425 91.5399C79.9847 91.5399 76.5747 90.4557 75.4687 90.0444C75.3287 89.9934 75.3253 89.7929 75.4687 89.7385L81.4321 87.4308C81.4594 87.4206 81.4901 87.4172 81.5174 87.4206L93.806 89.5142C93.8811 89.5278 93.9391 89.5924 93.9426 89.6706L93.9391 89.6739Z" fill="#D58E06"/>
<path d="M75.0839 89.8879C75.0839 89.8879 83.167 91.4582 89.0007 90.9891C94.8344 90.5201 94.5203 89.9525 94.5203 89.9525C94.5203 89.9525 95.3055 83.0565 84.884 83.0565C79.0504 83.0565 75.0839 89.8879 75.0839 89.8879Z" fill="#FBDA00"/>
<path d="M85.4293 89.7724C90.5154 89.7724 94.4238 89.0111 94.4853 89.0009L94.4648 88.8105L94.4375 88.644C94.3419 88.6644 84.8217 90.5303 76.165 88.3415L75.8919 88.6678C79.087 89.4767 82.4971 89.7724 85.4293 89.7724Z" fill="#F5B700"/>
<path d="M84.8846 83.0565C87.967 83.4236 90.7217 85.4186 91.0289 88.6406L91.0938 89.232L91.4351 89.2116L91.3464 88.5998C90.9094 85.3031 88.066 83.3284 84.8812 83.0599L84.8846 83.0565Z" fill="#F5B700"/>
<path d="M58.8958 48.046C57.9708 48.046 57.3222 47.7265 56.8648 47.2915C57.0491 46.8156 57.3222 46.4962 57.3222 46.4962C57.3222 46.4962 57.0218 46.7579 56.5542 46.9414C55.8646 46.0407 55.7657 44.9294 55.7657 44.9294C55.7657 44.9294 55.6701 46.0917 54.9396 46.9924C54.6972 46.8972 54.4549 46.7409 54.2091 46.5098C54.4515 46.7511 54.6085 47.0026 54.7041 47.2541C54.2364 47.7095 53.5844 48.0562 52.6321 48.0562C53.5571 48.0562 54.2057 48.3757 54.6631 48.8107C54.4788 49.2865 54.2057 49.606 54.2057 49.606C54.2057 49.606 54.5061 49.3443 54.9737 49.1608C55.6633 50.0614 55.7622 51.1728 55.7622 51.1728C55.7622 51.1728 55.8578 50.0105 56.5883 49.1098C56.8307 49.205 57.073 49.3613 57.3188 49.5924C57.0764 49.3511 56.9194 49.0996 56.8238 48.8481C57.2915 48.3927 57.9435 48.046 58.8958 48.046Z" fill="white"/>
<path d="M31.0746 61.0568H29.8047L30.0812 66.7395L30.9756 77.007L49.0364 76.2627L49.4256 73.3126C49.4256 73.3126 54.5834 74.4614 59.2155 74.5939C59.4988 74.6007 59.7821 74.6075 60.062 74.6075C60.062 67.895 60.6662 50.6839 60.6662 50.6839L33.2626 56.9783L31.078 61.0636L31.0746 61.0568Z" fill="#F5B700"/>
<path d="M61.3253 55.3738C49.2415 54.0687 29.4193 66.389 29.4193 66.389L28.6308 60.7268C28.6308 60.7268 40.8887 43.9608 61.0113 44.5522" fill="#FBDA00"/>
<path d="M43.654 51.6285C43.1181 51.6285 42.7392 51.445 42.4763 51.1935C42.5822 50.9216 42.7392 50.738 42.7392 50.738C42.7392 50.738 42.5651 50.8842 42.292 50.9998C41.8926 50.4764 41.8346 49.8272 41.8346 49.8272C41.8346 49.8272 41.7766 50.4967 41.3567 51.0167C41.2099 50.959 41.0734 50.8706 40.9403 50.7347C41.087 50.8808 41.1724 51.0235 41.2304 51.1595C40.9573 51.4212 40.5784 51.6251 40.0254 51.6251C40.5614 51.6251 40.9403 51.8087 41.2031 52.0602C41.0973 52.3321 40.9403 52.5156 40.9403 52.5156C40.9403 52.5156 41.1143 52.3694 41.3874 52.2539C41.7868 52.7773 41.8448 53.4264 41.8448 53.4264C41.8448 53.4264 41.9029 52.7569 42.3227 52.2369C42.4695 52.2947 42.606 52.383 42.7392 52.519C42.5924 52.3728 42.5071 52.2301 42.449 52.0941C42.7221 51.8324 43.101 51.6285 43.654 51.6285Z" fill="white"/>
<path d="M30.0822 66.7393L29.4234 66.3927C29.4848 66.3553 35.4687 61.9811 41.3706 59.551C47.2692 57.1142 57.7111 54.4631 57.8169 54.436L58.0866 55.4964C57.9807 55.5235 47.6173 58.1576 41.7905 60.5639C35.9705 62.9566 30.1402 66.702 30.0788 66.7393H30.0822Z" fill="#D58E06"/>
<path d="M28.6334 60.7169C28.6334 60.7169 33.2416 55.1396 38.9763 51.3636C44.711 47.5876 52.0978 45.511 52.0978 45.511L52.8966 44.4336C52.8966 44.4336 41.2941 48.0532 36.4332 52.3016C32.0128 56.0096 28.6197 60.7169 28.6197 60.7169H28.63H28.6334Z" fill="#FFEFA0"/>
<path d="M38.4044 60.8802L35.3562 53.5185L36.486 52.5363L39.6674 60.2038L38.4044 60.8802Z" fill="#FFEFA0"/>
<path d="M52.3553 73.8767C52.0925 73.7645 45.5556 70.8042 43.9205 67.5176C42.3708 64.401 41.118 60.4517 41.0634 60.2852L42.4015 59.9147C42.4152 59.9555 43.6782 63.9388 45.1835 66.967C46.6035 69.822 55.0929 74.2743 55.1544 74.3015L52.3553 73.8835V73.8767Z" fill="#D58E06"/>
<path d="M29.2655 89.2321C31.0746 89.2627 34.5735 89.3103 38.8403 89.3103H40.2979C40.8816 89.2899 41.2503 88.6408 41.0079 88.0698C40.2023 86.2209 38.0348 84.2564 35.2903 83.9845C34.8227 83.9369 34.3482 83.9471 33.8532 84.0049C31.1702 84.3346 29.4498 86.4622 28.593 87.8964C28.2517 88.4674 28.6306 89.2015 29.2655 89.2219V89.2321Z" fill="#D7605D"/>
<path opacity="0.2" d="M30.5081 89.232C32.1397 89.2524 35.1368 89.2898 38.8405 89.3102H40.298C40.8817 89.2898 41.2504 88.6406 41.008 88.0696C40.2024 86.2207 38.0349 84.2562 35.2904 83.9843C35.2221 83.9843 35.1539 84.0047 35.0856 84.0047C32.4026 84.3344 30.6924 86.462 29.8254 87.8963C29.484 88.4673 29.8629 89.2014 30.4979 89.2218L30.5081 89.232Z" fill="#010202"/>
<path d="M31.3272 89.2221C30.6957 89.2119 30.3168 88.4675 30.6548 87.8966C31.5116 86.4725 33.232 84.3347 35.915 84.005C39.3285 83.5904 42.1378 85.9117 43.0697 88.0699C43.3223 88.6511 42.9332 89.3104 42.3324 89.3104C37.4135 89.3104 33.3412 89.2527 31.3272 89.2153V89.2255V89.2221Z" fill="#D7605D"/>
<path d="M27.7987 89.4058L28.6828 86.2314C30.1165 83.0298 35.9058 82.0985 38.9882 83.6756L42.4187 85.4259C43.9446 86.211 45.7469 87.5773 45.8425 89.1373L45.863 89.382C45.8834 89.7117 44.7502 89.7831 44.3815 89.7933L28.3995 90.2317C28.2254 90.2385 28.0615 90.2317 27.9455 90.1467C27.7099 89.9734 27.6212 89.6607 27.7953 89.3956V89.4058H27.7987Z" fill="#FBDA00"/>
<path d="M45.4495 89.9359C45.4495 89.9359 32.9766 91.4756 28.3888 90.2792C28.3888 90.2792 28.0987 90.2588 27.8358 90.1059C27.573 89.9529 27.532 89.8374 27.532 89.8374C27.532 89.8374 27.2282 85.3171 31.4337 84.0629L29.2627 89.2222L34.2942 89.195L43.0669 88.07L45.3266 89.5587L45.4495 89.9359Z" fill="#FBDA00"/>
<path d="M46.1871 89.2186L49.0374 76.2593L29.9457 71.7594L27.662 73.0951L31.0516 82.6081L32.3829 83.4952L32.2225 85.6975" fill="#FBDA00"/>
<path d="M29.945 71.7594L34.0002 82.8052L32.0955 83.0771L31.0407 82.6081L27.6853 73.0917L29.945 71.7594Z" fill="#F5B700"/>
<path d="M43.8144 86.7886L46.0434 74.9916L47.1221 75.4164L44.5449 87.5295L43.8144 86.7886Z" fill="#F5B700"/>
<path d="M27.662 73.0951L29.9457 71.7594L49.0374 76.2594L48.1874 75.0664L29.3142 70.0363L27.8464 72.6125L27.662 73.0951Z" fill="#FFEFA0"/>
<path d="M38.5287 77.4525H38.5195L38.5287 77.4618V77.4525Z" fill="white"/>
<path d="M30.5876 75.9126C30.4511 76.1301 30.3487 76.3714 30.2804 76.6365C30.1712 77.0749 30.1883 77.5134 30.3111 77.9212C30.4033 78.2543 30.5774 78.5636 30.8027 78.8355C31.127 79.2161 31.5741 79.5016 32.1032 79.6308C32.1886 79.6512 32.2705 79.6716 32.3524 79.675C33.0897 79.7803 33.8066 79.5594 34.3391 79.0972C34.6804 78.7981 34.9467 78.414 35.0832 77.9552L35.1139 77.8295C35.4416 76.5108 34.6292 75.1751 33.2877 74.842C32.2159 74.5769 31.1372 75.0357 30.5842 75.916V75.9092L30.5876 75.9126Z" fill="#E0A000"/>
<path d="M33.2078 75.1683C34.3582 75.4538 35.0614 76.6025 34.7781 77.7411L34.7508 77.8499C34.6347 78.2475 34.4026 78.5806 34.1124 78.8355C33.655 79.2298 33.0338 79.4269 32.4057 79.3317C32.334 79.3147 32.2589 79.3113 32.1872 79.2943C31.7366 79.1822 31.3543 78.9375 31.0676 78.6078C30.873 78.3767 30.7228 78.1048 30.6443 77.8193C30.5385 77.4692 30.5248 77.0886 30.617 76.7113C30.675 76.4836 30.7672 76.2729 30.8798 76.0927C31.3611 75.345 32.2896 74.9406 33.2044 75.1649L33.2078 75.1683Z" fill="#10967F"/>
<path d="M33.2072 75.1682C34.3576 75.4537 35.0608 76.6025 34.7774 77.741L34.7501 77.8498C34.6375 77.8634 34.477 77.7071 34.3951 77.6629C33.61 77.2856 32.7327 77.877 31.9169 78.0673C31.3025 78.2067 30.6676 78.1353 30.613 77.2448C30.5891 76.871 30.7017 76.4495 30.8895 76.0961C31.3708 75.3483 32.2992 74.9439 33.214 75.1682H33.2072Z" fill="#80C6BB"/>
<path d="M32.2825 75.5898C32.047 75.6578 31.7807 75.7495 31.6237 76.0112C31.5964 76.0554 31.6169 76.1098 31.6579 76.103C31.8866 76.0588 32.0982 75.8855 32.3269 75.8107C32.5522 75.7427 32.7911 75.7257 33.013 75.7122C33.0642 75.7088 33.0813 75.6034 33.0437 75.5864C32.798 75.5014 32.5522 75.5082 32.2894 75.5932H32.2825V75.5898Z" fill="white"/>
<path d="M31.4093 76.2318C31.3103 76.2658 31.1771 76.3235 31.1874 76.4867C31.1942 76.5309 31.2113 76.558 31.242 76.5682C31.3512 76.5954 31.4195 76.4629 31.4707 76.3507C31.4912 76.2964 31.4604 76.2216 31.4161 76.2386H31.4093V76.2318Z" fill="white"/>
<path d="M29.312 70.0363L27.3321 71.8512L27.6598 73.0951L29.9435 71.7594L49.0352 76.2594L49.4721 74.4546L29.312 70.0363Z" fill="#FFEFA0"/>
<path d="M31.0331 82.6012C31.0706 82.6012 34.0301 82.8085 34.0301 82.8085L38.4267 82.0574L46.1856 89.1982L45.4483 89.9323L37.8328 84.7594L32.1766 83.4543L31.0331 82.6012Z" fill="#D58E06"/>
<path d="M31.0333 82.6016C31.0298 82.5744 34.0303 82.8089 34.0303 82.8089L38.4269 82.0578L46.1858 89.1985L46.4247 88.0905L39.0208 80.7459L33.6855 81.8538L30.6782 81.5615L31.0367 82.5982L31.0333 82.6016Z" fill="#FFEFA0"/>
<path d="M33.6856 81.8536L34.0304 82.8086C34.0304 82.8086 31.0334 82.5945 31.0334 82.6013C31.0334 82.6081 30.6749 81.5647 30.6749 81.5647L33.6822 81.857L33.6856 81.8536Z" fill="#FBDA00"/>
<path d="M26.5892 89.6742L26.555 90.7278C26.555 90.8059 26.6028 90.8739 26.6779 90.8909C27.2582 91.0235 29.8525 91.5401 35.3858 91.5401C40.5436 91.5401 43.9537 90.4559 45.0596 90.0446C45.1996 89.9937 45.203 89.7931 45.0596 89.7387L39.0963 87.431C39.0689 87.4208 39.0382 87.4174 39.0109 87.4208L26.7223 89.5144C26.6472 89.528 26.5892 89.5926 26.5858 89.6708L26.5892 89.6742Z" fill="#D58E06"/>
<path d="M45.4479 89.8882C45.4479 89.8882 37.3647 91.4584 31.531 90.9894C25.6973 90.5237 26.0114 89.9527 26.0114 89.9527C26.0114 89.9527 25.2263 83.0567 35.6477 83.0567C41.4814 83.0567 45.4479 89.8882 45.4479 89.8882Z" fill="#FBDA00"/>
<path d="M35.1015 89.7726C30.0153 89.7726 26.1069 89.0113 26.0454 89.0011L26.0659 88.8108L26.0932 88.6442C26.1888 88.6646 35.7091 90.5305 44.3657 88.3417L44.6388 88.668C41.4438 89.4769 38.0337 89.7726 35.1015 89.7726Z" fill="#F5B700"/>
<path d="M35.648 83.0567C32.5656 83.4238 29.8109 85.4188 29.5037 88.6408L29.4389 89.2322L29.0975 89.2118L29.1863 88.6001C29.6232 85.3033 32.4666 83.3286 35.6514 83.0601L35.648 83.0567Z" fill="#F5B700"/>
<path d="M60.0528 63.1637C65.5671 63.1637 70.0373 58.6869 70.0373 53.1646C70.0373 47.6423 65.5671 43.1656 60.0528 43.1656C54.5386 43.1656 50.0683 47.6423 50.0683 53.1646C50.0683 58.6869 54.5386 63.1637 60.0528 63.1637Z" fill="#D58E06"/>
<path d="M59.8782 61.6954C65.3925 61.6954 69.8627 57.2187 69.8627 51.6963C69.8627 46.174 65.3925 41.6973 59.8782 41.6973C54.3639 41.6973 49.8937 46.174 49.8937 51.6963C49.8937 57.2187 54.3639 61.6954 59.8782 61.6954Z" fill="#FBDA00"/>
<path d="M59.9739 59.5342C64.2968 59.5342 67.8011 56.0283 67.8011 51.7035C67.8011 47.3788 64.2968 43.8728 59.9739 43.8728C55.6511 43.8728 52.1468 47.3788 52.1468 51.7035C52.1468 56.0283 55.6511 59.5342 59.9739 59.5342Z" fill="#F5B700"/>
<mask id="mask4_4648_2807" style="mask-type:luminance" maskUnits="userSpaceOnUse" x="53" y="44" width="13" height="16">
<path d="M65.9239 44.1547H53.8708V59.0513H65.9239V44.1547Z" fill="white"/>
</mask>
<g mask="url(#mask4_4648_2807)">
<path d="M59.7634 58.9938C59.7634 58.9938 59.859 58.9938 59.9102 59.004C60.231 58.9734 60.5212 58.8782 60.784 58.7151C62.1733 57.845 63.5729 56.9817 64.9656 56.1219C65.1294 56.0267 65.2864 55.9077 65.4025 55.7548C65.1704 55.5033 64.9075 55.2892 64.6652 55.0581C64.4399 54.8541 64.218 54.6502 63.9927 54.4497C63.962 54.4191 63.9552 54.3919 63.9449 54.3545H63.8869C63.8664 54.4021 63.8289 54.4327 63.7811 54.4701C62.5966 55.2246 61.3985 55.9893 60.214 56.7336C60.0774 56.822 59.9409 56.9376 59.777 56.9851C59.777 57.6547 59.7668 58.331 59.7566 58.9972H59.7668L59.7634 58.9938Z" fill="#7AC9DC"/>
<path d="M65.3992 55.7411C65.1671 55.4896 64.9043 55.2755 64.6619 55.0443C64.4366 54.8404 64.2148 54.6365 63.9895 54.436C63.9417 54.3986 63.9417 54.3476 63.9417 54.2898C63.9622 52.5463 63.9792 50.8061 63.9997 49.0626C63.9997 48.9742 64.0373 48.9266 64.0953 48.879C64.5049 48.4916 64.9111 48.1041 65.3207 47.7167C65.3685 47.6793 65.4163 47.6385 65.4095 47.5603C65.7406 47.89 65.9249 48.2945 65.9249 48.7601C65.9249 49.7083 65.9044 50.6566 65.8942 51.6048C65.884 52.5735 65.8635 53.5319 65.8635 54.5005C65.8635 54.9662 65.7269 55.3808 65.4061 55.7411H65.3958H65.3992Z" fill="#5FAEC9"/>
<path d="M55.7667 48.8995C55.7462 50.6906 55.7292 52.492 55.7087 54.2797C55.6404 54.3273 55.5722 54.3749 55.5141 54.4258C55.1557 54.7453 54.8041 55.0648 54.4457 55.3741C54.3569 55.4523 54.2887 55.5474 54.1624 55.5882C53.9098 55.2789 53.763 54.9187 53.763 54.5244C53.763 53.362 53.7835 52.2031 53.8005 51.0407C53.8005 50.276 53.821 49.5113 53.8313 48.7568C53.8313 48.3319 53.9576 47.9445 54.2306 47.6148C54.2511 47.6148 54.2682 47.6148 54.2887 47.6352C54.6198 47.9241 54.9509 48.2164 55.2888 48.4951C55.4527 48.631 55.5995 48.7941 55.7838 48.9029H55.7633L55.7667 48.8995Z" fill="#7AC9DC"/>
<path d="M55.766 48.8993C55.5817 48.7939 55.4349 48.6274 55.2711 48.4914C54.9297 48.2094 54.6089 47.9103 54.2709 47.6316C54.2607 47.6214 54.2334 47.6214 54.2129 47.6112C54.3392 47.4378 54.4962 47.3019 54.6806 47.1863C56.1108 46.2959 57.5377 45.4156 58.9679 44.5251C59.2581 44.3518 59.5721 44.2634 59.9203 44.2736C59.9203 44.9432 59.8998 45.6093 59.8896 46.2857C59.5311 46.51 59.1693 46.7309 58.8211 46.9552C57.8312 47.584 56.8276 48.2229 55.8377 48.8517C55.8172 48.8721 55.7899 48.8823 55.7592 48.8891L55.7695 48.8993H55.766Z" fill="#5FAEC9"/>
<path d="M61.5621 47.3969C61.5826 47.4173 61.5929 47.4445 61.6099 47.4751C61.6577 47.4649 61.6782 47.4853 61.7055 47.5057C62.4155 47.9815 63.1153 48.4437 63.8253 48.9196C63.8731 48.9502 63.9038 48.9773 63.9209 49.0147C63.9413 49.0147 63.9686 49.0147 63.9891 49.0249C63.9994 48.9773 64.0369 48.9366 64.0779 48.8992C64.4875 48.5117 64.8937 48.1243 65.3033 47.7368C65.3511 47.6994 65.3989 47.6586 65.3921 47.5805C65.3033 47.4751 65.1975 47.3969 65.0815 47.3188C64.665 47.0469 61.8728 45.2285 61.7567 45.1504C61.4051 44.9362 61.0774 44.6847 60.7156 44.491C60.463 44.3449 60.1899 44.2769 59.91 44.2871C59.91 44.9566 59.8895 45.6228 59.8793 46.2991C60.4323 46.6662 60.9989 47.0333 61.5621 47.4139V47.3935V47.3969ZM60.8897 44.8921C61.016 45.164 61.1218 45.4427 61.2105 45.7248C61.1218 45.4427 61.0057 45.164 60.8897 44.8921C60.8692 44.8615 60.859 44.8241 60.8419 44.7969C60.8624 44.8275 60.8726 44.8649 60.8897 44.8921ZM60.7736 44.6372C60.7736 44.6372 60.8043 44.7051 60.8214 44.7323C60.8009 44.7017 60.7907 44.6644 60.7736 44.6372C60.7531 44.5896 60.7361 44.542 60.7258 44.491C60.7361 44.5386 60.7565 44.5862 60.7736 44.6372Z" fill="#7AC9DC"/>
<path d="M54.4077 55.8363C54.7286 56.0878 57.8383 58.093 58.0909 58.2562C58.3333 58.4193 58.5756 58.5858 58.8282 58.7388C59.0706 58.8951 59.3334 58.9699 59.6167 59.0005H59.7635C59.7635 58.3309 59.7738 57.6546 59.784 56.9884C59.6372 56.9103 59.4836 56.8321 59.3846 56.6996C59.3846 56.6996 59.3641 56.7199 59.3539 56.7301C59.3232 56.7097 59.2856 56.6928 59.2583 56.6622C58.0738 55.8669 56.8962 55.0852 55.7117 54.2899C55.6434 54.3374 55.5751 54.385 55.5171 54.436C55.1587 54.7555 54.8071 55.075 54.4487 55.3842C54.3599 55.4624 54.2917 55.5576 54.1654 55.5984C54.2336 55.6935 54.3121 55.7717 54.3975 55.8397H54.4077V55.8363Z" fill="#5FAEC9"/>
<path d="M59.2585 56.7366C59.2585 56.7366 59.3267 56.774 59.3541 56.8046C59.3541 56.8046 59.3745 56.7842 59.3848 56.774C59.395 56.7536 59.4053 56.7434 59.4155 56.7264C59.5111 56.842 59.6476 56.91 59.7842 56.9779C59.948 56.9304 60.0743 56.8216 60.2211 56.7264C61.4158 55.9719 62.6037 55.2174 63.7882 54.4629C63.894 54.3949 63.9725 54.3269 63.9725 54.2114C63.993 52.5256 64.0101 50.8432 64.0306 49.1575C64.0306 49.0317 63.9418 48.9637 63.8462 48.906C63.1362 48.4403 62.4364 47.9679 61.7264 47.4921C61.6957 47.4717 61.6787 47.4547 61.6309 47.4615C61.6309 47.4615 61.6411 47.4615 61.6513 47.4513C61.6309 47.4309 61.6138 47.4037 61.5933 47.3833C61.0301 47.0061 60.4737 46.639 59.9105 46.2618C59.552 46.4861 59.1902 46.707 58.842 46.9381C57.8521 47.5771 56.8485 48.216 55.8586 48.855C55.8381 48.8754 55.8108 48.8856 55.7801 48.8924C55.7596 50.7039 55.7426 52.5222 55.7118 54.3337C56.8963 55.129 58.074 55.9311 59.2585 56.723V56.7332V56.7366Z" fill="#4F95B1"/>
</g>
<path d="M50.0616 53.165C50.0616 53.165 49.8568 48.2368 52.0346 45.3241C54.2124 42.4114 58.7626 41.7317 58.7626 41.7317C58.7626 41.7317 53.854 42.826 52.2121 45.5348C50.5702 48.2436 50.065 53.1616 50.065 53.1616L50.0616 53.165Z" fill="#FFEFA0"/>
<path d="M54.1918 49.6234C55.1169 49.6234 55.7654 49.3039 56.2228 48.8689C56.0385 48.3931 55.7654 48.0736 55.7654 48.0736C55.7654 48.0736 56.0658 48.3353 56.5335 48.5188C57.223 47.6182 57.322 46.5068 57.322 46.5068C57.322 46.5068 57.4176 47.6691 58.1481 48.5698C58.3904 48.4746 58.6328 48.3183 58.8786 48.0872C58.6362 48.3285 58.4792 48.58 58.3836 48.8315C58.8512 49.2869 59.5032 49.6336 60.4556 49.6336C59.5305 49.6336 58.882 49.9531 58.4246 50.3881C58.6089 50.8639 58.882 51.1834 58.882 51.1834C58.882 51.1834 58.5816 50.9217 58.1139 50.7382C57.4244 51.6389 57.3254 52.7502 57.3254 52.7502C57.3254 52.7502 57.2298 51.5879 56.4993 50.6872C56.257 50.7824 56.0146 50.9387 55.7689 51.1698C56.0112 50.9285 56.1682 50.677 56.2638 50.4255C55.7962 49.9701 55.1442 49.6234 54.1918 49.6234Z" fill="white"/>
<path d="M62.1216 74.0908L60.862 74.6074H59.5751L58.8788 74.4442L59.1246 63.5241H61.811L62.1216 74.0908Z" fill="#F5B700"/>
<path d="M91.882 60.7171C91.882 60.7171 88.3695 56.0098 83.7885 52.3018C78.7536 48.0534 66.7381 44.4338 66.7381 44.4338L67.5676 45.5112C67.5676 45.5112 75.2206 47.5912 81.1601 51.3638C87.0996 55.1397 91.8751 60.7171 91.8751 60.7171H91.8854H91.882Z" fill="#FFEFA0"/>
<path d="M89.8604 55C89.9119 55.2272 89.9819 55.5358 90.0556 55.8988C90.6449 55.9333 91.2452 55.9679 91.8604 56L90.5639 55.3037C90.1513 55.1531 89.8604 55 89.8604 55Z" fill="#3B756A"/>
</g>
<defs>
<clipPath id="clip0_4648_2807">
<rect width="120" height="120" fill="white"/>
</clipPath>
</defs>
</svg>
